:version 1.10
:name ASF
:units
  mass 1
  length 1
  angle deg
:documentation
  ASF file generated by Kaydara
:root
  axis xyz
  order  tx ty tz rx ry rz
  position 0 0 0
  orientation 0 0 0
:bonedata
  begin
    id 1
    name lowerbackDummy
    direction 0 0 0
    length 0
    axis 0 -0 0 xyz
  end
  begin
    id 2
    name lowerback
    direction 0.0149039 0.998517 -0.0523597
    length 4.68464
    axis 0 -0 0 xyz
    dof rx ry rz
    limits( -inf , inf )
( -inf , inf )
( -inf , inf )

  end
  begin
    id 3
    name upperback
    direction -0.00882659 0.999418 -0.0329624
    length 4.68933
    axis 0 -0 0 xyz
    dof rx ry rz
    limits( -inf , inf )
( -inf , inf )
( -inf , inf )

  end
  begin
    id 4
    name thorax
    direction -0.0165585 0.999826 -0.0085833
    length 4.68976
    axis 0 -0 0 xyz
    dof rx ry rz
    limits( -inf , inf )
( -inf , inf )
( -inf , inf )

  end
  begin
    id 5
    name lowerneck
    direction -0.0130877 0.999911 0.00260353
    length 3.85007
    axis 0 -0 0 xyz
    dof rx ry rz
    limits( -inf , inf )
( -inf , inf )
( -inf , inf )

  end
  begin
    id 6
    name upperneck
    direction -0.0348454 0.928205 -0.370435
    length 3.70427
    axis 0 -0 0 xyz
    dof rx ry rz
    limits( -inf , inf )
( -inf , inf )
( -inf , inf )

  end
  begin
    id 7
    name head
    direction 0 0 0
    length 0
    axis 0 0 0 xyz
    dof rx ry rz
    limits( -inf , inf )
( -inf , inf )
( -inf , inf )

  end
  begin
    id 8
    name lclavicle
    direction 0.987582 0.144023 0.0627671
    length 7.76078
    axis 0 -0 0 xyz
    dof rx ry rz
    limits( -inf , inf )
( -inf , inf )
( -inf , inf )

  end
  begin
    id 9
    name lhumerus
    direction 1 -4.48958e-011 -1.45183e-018
    length 12.0426
    axis 180 -30 -90 xyz
    dof rx ry rz
    limits( -inf , inf )
( -inf , inf )
( -inf , inf )

  end
  begin
    id 10
    name lradius
    direction 1 -4.48999e-011 3.74805e-027
    length 5.43051
    axis 180 -30 -90 xyz
    dof rz ry rx
    limits( -inf , inf )
( -inf , inf )
( -inf , inf )

  end
  begin
    id 11
    name lwrist
    direction 1 -4.48988e-011 -4.48237e-017
    length 2.71524
    axis -90 90 0 xyz
    dof rz rx ry
    limits( -inf , inf )
( -inf , inf )
( -inf , inf )

  end
  begin
    id 12
    name lhand
    direction 1 -4.48882e-011 -4.48237e-017
    length 1.61667
    axis -90 90 0 xyz
    dof ry rx rz
    limits( -inf , inf )
( -inf , inf )
( -inf , inf )

  end
  begin
    id 13
    name lfingers
    direction 0 0 0
    length 0
    axis 0 0 0 xyz
    dof rz ry rx
    limits( -inf , inf )
( -inf , inf )
( -inf , inf )

  end
  begin
    id 14
    name lthumb
    direction 0 0 0
    length 0
    axis 0 0 0 xyz
    dof ry rx rz
    limits( -inf , inf )
( -inf , inf )
( -inf , inf )

  end
  begin
    id 15
    name rclavicle
    direction -0.980998 0.169556 0.0943023
    length 7.31716
    axis 0 -0 0 xyz
    dof rx ry rz
    limits( -inf , inf )
( -inf , inf )
( -inf , inf )

  end
  begin
    id 16
    name rhumerus
    direction -1 -1.83355e-005 2.45537e-005
    length 12.4217
    axis 180 30 90 xyz
    dof rx ry rz
    limits( -inf , inf )
( -inf , inf )
( -inf , inf )

  end
  begin
    id 17
    name rradius
    direction -1 -4.48967e-011 0
    length 5.51244
    axis 180 30 90 xyz
    dof rz ry rx
    limits( -inf , inf )
( -inf , inf )
( -inf , inf )

  end
  begin
    id 18
    name rwrist
    direction -1 -4.48964e-011 -4.48237e-017
    length 2.75622
    axis -90 -90 0 xyz
    dof rz rx ry
    limits( -inf , inf )
( -inf , inf )
( -inf , inf )

  end
  begin
    id 19
    name rhand
    direction -1 -4.48882e-011 -4.48237e-017
    length 1.81335
    axis -90 -90 0 xyz
    dof ry rx rz
    limits( -inf , inf )
( -inf , inf )
( -inf , inf )

  end
  begin
    id 20
    name rfingers
    direction 0 0 0
    length 0
    axis 0 0 0 xyz
    dof rz ry rx
    limits( -inf , inf )
( -inf , inf )
( -inf , inf )

  end
  begin
    id 21
    name rthumb
    direction 0 0 0
    length 0
    axis 0 0 0 xyz
    dof ry rx rz
    limits( -inf , inf )
( -inf , inf )
( -inf , inf )

  end
  begin
    id 22
    name rfemurDummy
    direction -0.640058 -0.688614 0.340788
    length 5.51442
    axis 0 -0 0 xyz
  end
  begin
    id 23
    name rfemur
    direction -0.34202 -0.939693 0
    length 14.6194
    axis 0 -0 -20 xyz
    dof rx ry rz
    limits( -inf , inf )
( -inf , inf )
( -inf , inf )

  end
  begin
    id 24
    name rtibia
    direction -0.34202 -0.939693 0
    length 17.7267
    axis 0 -0 -20 xyz
    dof rz ry rx
    limits( -inf , inf )
( -inf , inf )
( -inf , inf )

  end
  begin
    id 25
    name rfoot
    direction -0.0979793 -0.269196 0.958089
    length 4.88571
    axis -90 -7.62852e-016 -20 xyz
    dof ry rx rz
    limits( -inf , inf )
( -inf , inf )
( -inf , inf )

  end
  begin
    id 26
    name rtoes
    direction 0 0 0
    length 0
    axis 0 0 0 xyz
    dof rz ry rx
    limits( -inf , inf )
( -inf , inf )
( -inf , inf )

  end
  begin
    id 27
    name lfemurDummy
    direction 0.653368 -0.678499 0.335782
    length 5.59662
    axis 0 -0 0 xyz
  end
  begin
    id 28
    name lfemur
    direction 0.34202 -0.939693 0
    length 14.6166
    axis 0 -0 20 xyz
    dof rx ry rz
    limits( -inf , inf )
( -inf , inf )
( -inf , inf )

  end
  begin
    id 29
    name ltibia
    direction 0.34202 -0.939693 0
    length 17.6582
    axis 0 -0 20 xyz
    dof rz ry rx
    limits( -inf , inf )
( -inf , inf )
( -inf , inf )

  end
  begin
    id 30
    name lfoot
    direction 0.0811271 -0.222895 0.971461
    length 5.14087
    axis -90 7.62852e-016 20 xyz
    dof ry rx rz
    limits( -inf , inf )
( -inf , inf )
( -inf , inf )

  end
  begin
    id 31
    name ltoes
    direction 0 0 0
    length 0
    axis 0 0 0 xyz
    dof rz ry rx
    limits( -inf , inf )
( -inf , inf )
( -inf , inf )

  end
:hierarchy
  begin
    root lowerbackDummy rfemurDummy lfemurDummy
    lowerbackDummy lowerback
    lowerback upperback
    upperback thorax
    thorax lowerneck lclavicle rclavicle
    lowerneck upperneck
    upperneck head
    lclavicle lhumerus
    lhumerus lradius
    lradius lwrist
    lwrist lhand lthumb
    lhand lfingers
    rclavicle rhumerus
    rhumerus rradius
    rradius rwrist
    rwrist rhand rthumb
    rhand rfingers
    rfemurDummy rfemur
    rfemur rtibia
    rtibia rfoot
    rfoot rtoes
    lfemurDummy lfemur
    lfemur ltibia
    ltibia lfoot
    lfoot ltoes
  end

:SAMPLES-PER-SECOND 30
:FULLY-SPECIFIED
:DEGREES
39
root  0.7962755331 36.49799918 -42.58711207 9.690150261 -2.798549891 -1.573619962
lowerback  -2.273089886 3.29956007 1.404019952
upperback  -2.867609978 4.370759964 -1.787050009
thorax  -1.427340031 2.146970034 -2.566509962
lowerneck  -18.87770081 -1.513520002 -2.07694006
upperneck  34.58140182 -1.198250055 -0.6060770154
head  15.29150009 -0.8546339869 -0.1077200025
lclavicle  0 5.864150125e-015 -2.067359921e-014
lhumerus  -53.03850174 30.28720093 52.40069962
lradius  -3.093290888e-031 -1.703054761e-031 28.8355999
lwrist  -3.531125038e-031 -0 -2.027299881
lhand  -7.06941776e-031 -2.580310106 19.27099991
lfingers  90 7.125020027 -90
lthumb  91.14099068 2.670743618 66.85670243
rclavicle  0 5.864150125e-015 -2.067359921e-014
rhumerus  -35.33919907 -3.873320103 -79.3973999
rradius  2.971549747e-031 1.907547152e-031 32.69789886
rwrist  7.062250077e-031 -0 -13.14299965
rhand  -3.533584869e-031 -2.138000011 11.0692997
rfingers  -90 -7.125020027 -90
rthumb  -78.25943017 -25.03535416 -63.84367244
rfemur  10.92300034 14.37950039 27.73539925
rtibia  -0 0 11.54170036
rfoot  -0 -10.25800037 -19.65329933
rtoes  -3.675615556 19.67295447 -79.19668863
lfemur  -39.16230011 -9.179070473 -15.40550041
ltibia  -0 0 29.65940094
lfoot  -0 -14.07320023 23.74230003
ltoes  -7.368239576 -18.6451391 -112.0222014
40
root  0.7612466812 36.52800012 -42.34599917 10.10910034 -1.107310057 -1.110120058
lowerback  -1.970589995 2.56862998 0.5212749839
upperback  -2.945039988 3.402590036 -1.767060041
thorax  -1.779829979 1.674309969 -2.087640047
lowerneck  -19.97139931 -1.376449943 -2.07494998
upperneck  34.95029831 -0.9667360187 -0.5906159878
head  15.72459984 -0.7574800253 -0.06961330026
lclavicle  0 5.864150125e-015 -2.067359921e-014
lhumerus  -52.49570084 31.74860001 51.92050171
lradius  -3.110208573e-031 -1.671958931e-031 28.26119995
lwrist  -1.059337512e-030 -3.531125038e-031 -3.023720026
lhand  -7.070110938e-031 -2.702090025 19.28660011
lfingers  90 7.125020027 -90
lthumb  91.14740156 2.700951776 66.97314982
rclavicle  0 5.864150125e-015 -2.067359921e-014
rhumerus  -35.00360107 -4.66053009 -79.26329803
rradius  3.000291188e-031 1.862014185e-031 31.82419968
rwrist  7.062250077e-031 -0 -12.53909969
rhand  -0 -2.335740089 11.18560028
rfingers  -90 -7.125020027 -90
rthumb  -78.30178877 -25.15653149 -64.02985016
rfemur  9.801609993 13.26860046 27.67480087
rtibia  -0 0 13.23449993
rfoot  -0 -9.644729614 -20.03240013
rtoes  -3.830040967 19.64460034 -78.73766218
lfemur  -39.6855011 -8.819459915 -16.44820023
ltibia  -0 0 30.04260063
lfoot  -0 -12.02210045 22.29820061
ltoes  -7.734822607 -18.50050865 -113.1730977
41
root  0.8359221962 36.59377811 -41.86888867 9.876919746 -1.546830058 -0.8028590083
lowerback  -2.699359894 2.537139893 -0.1703940034
upperback  -2.443030119 3.379570007 -1.574990034
thorax  -0.9080010056 1.682150006 -1.453469992
lowerneck  -20.73089981 -1.182669997 -2.366569996
upperneck  35.08459854 -0.5032699704 -0.6724020243
head  15.96990013 -0.6183819771 0.02962169982
lclavicle  0 5.864150125e-015 -2.067359921e-014
lhumerus  -52.18330002 33.2322998 51.91889954
lradius  -3.119295823e-031 -1.654943385e-031 27.94820023
lwrist  -1.059337512e-030 -3.531125038e-031 -3.665570021
lhand  -3.542551702e-031 -4.603159904 17.83779907
lfingers  90 7.125020027 -90
lthumb  90.61472493 1.58649752 68.81678885
rclavicle  0 5.864150125e-015 -2.067359921e-014
rhumerus  -34.3973999 -5.110089779 -78.74970245
rradius  3.036035072e-031 1.803145885e-031 30.70669937
rwrist  7.062250077e-031 1.765562519e-031 -11.93120003
rhand  -3.533980403e-031 -2.303380013 11.81849957
rfingers  -90 -7.125020027 -90
rthumb  -77.97754309 -25.72232183 -63.86307976
rfemur  9.26760006 13.25360012 27.15169907
rtibia  -0 0 15.5770998
rfoot  -0 -8.865050316 -19.54129982
rtoes  -3.862623955 19.63846243 -78.64072777
lfemur  -38.64799881 -8.854299545 -17.11000061
ltibia  -0 0 30.3397007
lfoot  -0 -12.86909962 22.39290047
ltoes  -8.510982285 -18.16618826 -115.6403068
42
root  0.9158955784 36.64466678 -41.40688979 9.640000343 -1.96855998 -0.462947011
lowerback  -2.745830059 2.790019989 -0.3171829879
upperback  -2.701430082 3.713769913 -1.978780031
thorax  -1.122560024 1.847139955 -1.784369946
lowerneck  -20.21710014 -1.348270059 -2.418270111
upperneck  35.47869873 -0.9015899897 -0.2669070065
head  16.04879951 -0.7324659824 0.1380250007
lclavicle  0 5.864150125e-015 -2.067359921e-014
lhumerus  -51.99330139 32.77209854 51.60649872
lradius  -3.126163419e-031 -1.641933712e-031 27.70949936
lwrist  -1.059337512e-030 -3.531125038e-031 -3.872070074
lhand  -3.537307595e-031 -3.388040066 17.50489998
lfingers  90 7.125020027 -90
lthumb  90.46883358 1.140616733 67.65383383
rclavicle  0 5.864150125e-015 -2.067359921e-014
rhumerus  -35.36119843 -6.86480999 -78.35980225
rradius  3.076815605e-031 1.732642424e-031 29.38509941
rwrist  7.062250077e-031 -0 -10.72780037
rhand  -3.533795233e-031 -2.227489948 12.67249966
rfingers  -90 -7.125020027 -90
rthumb  -77.51724746 -26.48092269 -63.59667271
rfemur  8.681839943 13.15540028 26.5720005
rtibia  -0 0 17.93020058
rfoot  -0 -7.477859974 -19.0182991
rtoes  -4.206728752 19.57031664 -77.61517715
lfemur  -37.61930084 -8.807359695 -17.83550072
ltibia  -0 0 30.55170059
lfoot  -0 -13.66119957 22.56500053
ltoes  -8.727221917 -18.06600238 -116.3357296
